<svg width="1708" height="1708" viewBox="0 0 1708 1708" fill="none" xmlns="http://www.w3.org/2000/svg">
<path d="M1 861C1 856.029 5.02944 852 10 852H859C863.971 852 868 856.029 868 861C868 865.971 863.971 870 859 870H10C5.02944 870 1 865.971 1 861Z" fill="#5EA376"/>
<path d="M670 861C670 874.807 658.807 886 645 886C631.193 886 620 874.807 620 861C620 847.193 631.193 836 645 836C658.807 836 670 847.193 670 861Z" fill="#5EA376"/>
<path d="M396 861C396 874.807 384.807 886 371 886C357.193 886 346 874.807 346 861C346 847.193 357.193 836 371 836C384.807 836 396 847.193 396 861Z" fill="#5EA376"/>
<path d="M756 861C756 874.807 744.807 886 731 886C717.193 886 706 874.807 706 861C706 847.193 717.193 836 731 836C744.807 836 756 847.193 756 861Z" fill="#5EA376"/>
<path d="M238 861C238 874.807 226.807 886 213 886C199.193 886 188 874.807 188 861C188 847.193 199.193 836 213 836C226.807 836 238 847.193 238 861Z" fill="#5EA376"/>
<mask id="mask0_64:30" style="mask-type:alpha" maskUnits="userSpaceOnUse" x="0" y="0" width="1708" height="1708">
<path d="M854.25 1695.75C389.502 1695.75 12.75 1319 12.75 854.25C12.75 389.502 389.502 12.75 854.25 12.75C1319 12.75 1695.75 389.502 1695.75 854.25C1695.75 1319 1319 1695.75 854.25 1695.75Z" stroke="white" stroke-width="24"/>
</mask>
<g mask="url(#mask0_64:30)">
<rect x="883" y="1" width="825" height="1707" fill="#5EABA6"/>
<rect x="310" y="1" width="573" height="1707" fill="#4D8C88"/>
<rect x="196" y="1" width="114" height="1707" fill="#A72408"/>
<rect x="144" y="1" width="52" height="1707" fill="#EB951A"/>
<rect x="-136" y="1" width="280" height="1707" fill="#5EA376"/>
</g>
<path fill-rule="evenodd" clip-rule="evenodd" d="M975.056 836.889C975.8 822.569 959.066 790.543 947.764 770.682C945.609 766.894 950.372 762.387 954 764.804C984.496 785.124 1049.71 826.454 1077.22 827.6C1092.19 827.044 1107.76 826.75 1123.75 826.75C1130.27 826.75 1136.72 826.859 1143.08 827.065L1143.09 827.002C1144.87 827.079 1146.68 827.166 1148.5 827.263C1150.34 827.339 1152.18 827.423 1154.01 827.514L1153.97 827.581C1179.46 829.174 1206.17 832.378 1220.13 834.29C1220.11 834.252 1220.09 834.213 1220.07 834.174C1268.71 841.478 1306.27 852.308 1323.47 857.795C1324.13 858.006 1324.67 858.34 1325.08 858.75H1364.35C1365.26 856.969 1367.11 855.75 1369.25 855.75C1372.29 855.75 1374.75 858.212 1374.75 861.25C1374.75 864.287 1372.29 866.75 1369.25 866.75C1367.11 866.75 1365.26 865.531 1364.35 863.75H1325.08C1324.67 864.16 1324.13 864.494 1323.47 864.705C1296.06 873.446 1217.01 895.75 1123.75 895.75C1107.79 895.75 1092.24 895.457 1077.3 894.903C1050.91 896.124 984.406 937.882 953.72 958.053C950.093 960.437 945.407 955.955 947.556 952.184C958.858 932.353 975.804 900.019 975.056 885.611C958.195 882.834 944.198 879.586 933.857 875.999L915.331 890.458C913.389 891.974 910.799 892.607 908.592 891.512C889.524 882.048 889.524 840.452 908.592 830.988C910.799 829.893 913.389 830.526 915.331 832.042L933.857 846.501C944.198 842.914 958.195 839.666 975.056 836.889ZM1171.75 856.75C1160.71 856.75 1151.75 847.796 1151.75 836.75C1151.75 834.931 1152 833.17 1152.45 831.495C1178.74 833.084 1206.63 836.46 1220.48 838.376C1217.06 848.661 1182.25 856.75 1171.75 856.75Z" fill="#50534A"/>
</svg>
