<svg width="1715" height="1708" viewBox="0 0 1715 1708" fill="none" xmlns="http://www.w3.org/2000/svg">
<rect x="8.25" y="852.5" width="866" height="17" rx="8.5" fill="#5EA376" stroke="#5EA376" stroke-linejoin="round"/>
<circle cx="651.75" cy="861" r="25" fill="#5EA376"/>
<circle cx="377.75" cy="861" r="25" fill="#5EA376"/>
<circle cx="737.75" cy="861" r="25" fill="#5EA376"/>
<circle cx="219.75" cy="861" r="25" fill="#5EA376"/>
<mask id="mask0_64:29" style="mask-type:alpha" maskUnits="userSpaceOnUse" x="7" y="0" width="1708" height="1708">
<path d="M861 1695.75C396.252 1695.75 19.5 1319 19.5 854.25C19.5 389.502 396.252 12.75 861 12.75C1325.75 12.75 1702.5 389.502 1702.5 854.25C1702.5 1319 1325.75 1695.75 861 1695.75Z" stroke="white" stroke-width="24"/>
</mask>
<g mask="url(#mask0_64:29)">
<rect x="889.75" y="1" width="825" height="1707" fill="#5EABA6"/>
<rect x="316.75" y="1" width="573" height="1707" fill="#4D8C88"/>
<rect x="202.75" y="1" width="114" height="1707" fill="#A72408"/>
<rect x="150.75" y="1" width="52" height="1707" fill="#EB951A"/>
<rect x="-129.25" y="1" width="280" height="1707" fill="#5EA376"/>
</g>
<path fill-rule="evenodd" clip-rule="evenodd" d="M981.806 836.889C982.55 822.569 965.816 790.543 954.515 770.682C952.359 766.894 957.122 762.387 960.75 764.804C991.246 785.124 1056.46 826.454 1083.97 827.6C1098.94 827.044 1114.51 826.75 1130.5 826.75C1137.02 826.75 1143.47 826.859 1149.83 827.065L1149.84 827.002C1151.62 827.079 1153.43 827.166 1155.25 827.263C1157.09 827.339 1158.93 827.423 1160.76 827.514L1160.72 827.581C1186.21 829.174 1212.92 832.378 1226.88 834.29C1226.86 834.252 1226.84 834.213 1226.82 834.174C1275.46 841.478 1313.02 852.308 1330.22 857.795C1330.88 858.006 1331.42 858.34 1331.83 858.75H1371.1C1372.01 856.969 1373.86 855.75 1376 855.75C1379.04 855.75 1381.5 858.212 1381.5 861.25C1381.5 864.287 1379.04 866.75 1376 866.75C1373.86 866.75 1372.01 865.531 1371.1 863.75H1331.83C1331.42 864.16 1330.88 864.494 1330.22 864.705C1302.81 873.446 1223.76 895.75 1130.5 895.75C1114.54 895.75 1098.99 895.457 1084.05 894.903C1057.66 896.124 991.156 937.882 960.47 958.053C956.843 960.437 952.157 955.955 954.306 952.184C965.608 932.353 982.554 900.019 981.806 885.611C964.945 882.834 950.948 879.586 940.607 875.999L922.081 890.458C920.139 891.974 917.549 892.607 915.342 891.512C896.274 882.048 896.274 840.452 915.342 830.988C917.549 829.893 920.139 830.526 922.081 832.042L940.607 846.501C950.948 842.914 964.945 839.666 981.806 836.889ZM1178.5 856.75C1167.46 856.75 1158.5 847.796 1158.5 836.75C1158.5 834.931 1158.75 833.17 1159.2 831.495C1185.49 833.084 1213.38 836.46 1227.23 838.376C1223.81 848.661 1189 856.75 1178.5 856.75Z" fill="#50534A"/>
</svg>
